<svg width="20" height="18" viewBox="0 0 20 18" fill="none" xmlns="http://www.w3.org/2000/svg">
<path d="M19.7747 8.39227C20.0751 8.13222 20.0751 7.71058 19.7747 7.45052L13.4072 1.93818C12.7556 1.37407 12.2122 0.903661 11.7229 0.580444C11.2064 0.239286 10.6606 0 10 0C9.33935 0 8.79363 0.239286 8.27712 0.580445C7.78777 0.903665 7.24442 1.37407 6.59283 1.93818L0.225303 7.45052C-0.0751008 7.71058 -0.0751008 8.13222 0.225303 8.39227C0.525706 8.65233 1.01276 8.65233 1.31316 8.39227L1.75384 8.01078V10.9257C1.75384 13.7869 4.02882 16.2718 7.24662 16.9252C9.05762 17.293 10.9424 17.293 12.7534 16.9252C15.9712 16.2718 18.2461 13.7869 18.2461 10.9257V8.01076L18.6868 8.39227C18.9872 8.65233 19.4743 8.65233 19.7747 8.39227Z" fill="black"/>
</svg>
